<svg width="14" height="14" viewBox="0 0 14 14" fill="none" xmlns="http://www.w3.org/2000/svg">
<path d="M6.25998 1.12725C6.45998 0.513248 7.32864 0.513248 7.52798 1.12725L8.54064 4.24325C8.63004 4.51742 8.88559 4.70304 9.17397 4.70325H12.4506C13.0966 4.70325 13.3646 5.52991 12.8426 5.90991L10.192 7.83525C9.95839 8.00506 9.8607 8.30595 9.94998 8.58058L10.962 11.6966C11.162 12.3106 10.4586 12.8219 9.93531 12.4419L7.28464 10.5166C7.05106 10.347 6.73489 10.347 6.50131 10.5166L3.85064 12.4419C3.32798 12.8219 2.62531 12.3106 2.82464 11.6966L3.83664 8.58058C3.92592 8.30595 3.82822 8.00506 3.59464 7.83525L0.943975 5.90991C0.421308 5.52991 0.690642 4.70325 1.33598 4.70325H4.61198C4.9006 4.70332 5.1565 4.51766 5.24598 4.24325L6.25864 1.12725H6.25998" stroke="#0C2B50" stroke-width="1.33333" stroke-linecap="round" stroke-linejoin="round"/>
</svg>
