<svg width="19" height="20" viewBox="0 0 19 20" fill="none" xmlns="http://www.w3.org/2000/svg">
<path d="M2 20C1.45 20 0.979167 19.8042 0.5875 19.4125C0.195833 19.0208 0 18.55 0 18V2C0 1.45 0.195833 0.979167 0.5875 0.5875C0.979167 0.195833 1.45 0 2 0H10L16 6V9C15.6167 9.08333 15.2583 9.21667 14.925 9.4C14.5917 9.58333 14.2833 9.81667 14 10.1L8 16.075V20H2ZM10 20V16.925L15.525 11.425C15.675 11.275 15.8417 11.1667 16.025 11.1C16.2083 11.0333 16.3917 11 16.575 11C16.775 11 16.9667 11.0375 17.15 11.1125C17.3333 11.1875 17.5 11.3 17.65 11.45L18.575 12.375C18.7083 12.525 18.8125 12.6917 18.8875 12.875C18.9625 13.0583 19 13.2417 19 13.425C19 13.6083 18.9667 13.7958 18.9 13.9875C18.8333 14.1792 18.725 14.35 18.575 14.5L13.075 20H10ZM16.575 14.4L17.5 13.425L16.575 12.5L15.625 13.45L16.575 14.4ZM9 7H14L9 2L14 7L9 2V7Z" fill="#0C2B50"/>
</svg>
